/* XPM */
static char *vines_variant_64x64[] = {
"64 64 92 1",
"  c #131519",
". c #131418",
"X c #131518",
"o c #121519",
"O c #131419",
"+ c #121418",
"@ c #131517",
"# c #121419",
"$ c #121318",
"% c #121518",
"& c #111418",
"* c #131318",
"= c #141519",
"- c #141419",
"; c #31241E",
": c #18181A",
"! c #29201D",
", c #3C2B20",
"~ c #3B2A20",
"^ c #2C221E",
"< c #221C1C",
"> c #161519",
"/ c #3E2C20",
"? c #402D21",
"a c #1B181A",
"b c #2B201D",
"c c #2A201E",
"d c #422E21",
"e c #241D1C",
"f c #3E2D21",
"g c #251D1C",
"h c #35261F",
"i c #38281F",
"j c #2D211E",
"k c #32251F",
"l c #37271F",
"m c #261D1C",
"n c #39291F",
"o c #36271F",
"p c #2D221E",
"q c #141618",
"r c #271F1D",
"s c #121417",
"t c #5D432C",
"u c #64482F",
"v c #4F3926",
"w c #553C28",
"x c #234912",
"y c #1F3713",
"z c #1C181A",
"A c #4D3624",
"B c #4B3423",
"C c #533A26",
"D c #443022",
"E c #573F29",
"F c #0F2312",
"G c #122712",
"H c #5A402A",
"I c #111317",
"J c #33261F",
"K c #221B1B",
"L c #193612",
"M c #473323",
"N c #231C1C",
"O c #0C1914",
"P c #30231E",
"Q c #2B211D",
"R c #211A1B",
"S c #111518",
"T c #231B1C",
"U c #1D1A1A",
"V c #1C2C14",
"W c #0B1C12",
"X c #0D1C13",
"Y c #1E181B",
"Z c #1F4112",
"0 c #1F1A1B",
"1 c #0E1616",
"2 c #0D2012",
"3 c #0D1E13",
"4 c #111517",
"5 c #2F221E",
"6 c #173211",
"7 c #131417",
"8 c #111318",
"9 c #281E1D",
"( c #201B1B",
") c #1F1B1B",
"{ c #0F1317",
"} c #121618",
"[ c #0F1417",
"] c #0E1117",
" .XoO+@X.O#$+o  Oo% X..& *. X. = +% =.o#$*# .O $#$X+..+ooO+%-%##",
"%;:!,~^@<<<+>/?!?ab,cbdad?,:e~,fghii>jk++=lmn>oij/p:/?/q!Xr,~ s ",
".>tuvwixyazOcuduu?uuvuvtuAuBuuCuuvuuow?.OpuuuDuluuduEuDFxGdH??^I",
".?uJ~wwKxL>&/~u?g;DJBvv;uuvAnkv;CwfBCcMgXEtn/M;uoHE/ENkyxOPDed^$",
"+ikJvQ?RGxLSR/,rxLaA/T/vBgEH~t,Bnive,dJm oi,UVxJ~DDRDkUxyOBMwh^O",
"X!ddkPU,mWxXYn:Z:0lv~Ae/p?ievd?h!,/nANJg#hYkkzL1dkTDc+XZ2r,R?i0s",
".kzrijD~h3x14<xWj/?i0nnPkm:Mip:Dd50imJJzOoB~ZxGX1gde36xF<?ed<e07",
"#zb,b~pe0362FUL8oh9moo(k)i!jNic99pjpqmz #ke061-LGUR+3xFOK~,k,^+o",
"+$jNN>KUKK{G6x3seN+)Nz<R>0<eaUONXQeRc9O +&90zRKOyG&3x6$gpR9Kjo7s",
". .-++o+-*1OLGO8 XX.+7#+8+o+o#&O#I$%}##os*%X%%.S3yFZ6[8+X %*.X##",
"#:,ttHfCEElJOZ3&jCfHHie+>ftHEkpttDDHH~tttkHkvAD!W6xL[Y~owD;A?l9#",
"X,ttJMMMMiClXyGO,dH~oD!+ottpHfQtlwwnwEdkEEJwkBjQ3xLF>poBf,B^?0! ",
"o~~,A,RZcJi<gFx1aoDjBJ<%g?eDj!feDP,i~rfCk~Z:a)pK2xG1<Z3Z6ohM<lbS",
" li<,^Q3y2Q~z3ZORorD<Nk+h~h9dDooJM?j)f,JlP(2FPKqxL2G6q90XK0jpPNO",
"+K;/ 6O:@G[9)ZLXRNj;<om49QhKkUeiN,e~f0Jeo6O:qqU1ZGG11a,P9o5apTa+",
"#ap(^a0cR&y[3L21Pj+NP>!#zYhPUjion5ig;kKnUOap1L{FL28Y~oR;;>rh<b&8",
"$ 0o<:Uz0XyGZG3Um%meamO.&r0a<<aqeaK-eqzbzab^XZFLF&a(m <z:Qjez8&8",
"&&+#.$=.%+FxGX{o&++-=%sSI$o&$ #7=XX%oX# +O #16ZF3&&X@+#$.7o S#++",
"O0Jw?vvDmS3GOqrMfw~?E~tuuAtBBwg %p?HH/EH?EvvmOGF10Jww?CwDi//h0<I",
"}iwBnDDjnWZ3OT~vnBvJZG!ovADwhJ?:S?HHiDMoiA;v,F3x{PMoDC,rDE;JkpY#",
"OociAi),JFx6[ekm~apVOK)d/~J?Ap~a4?drEhbpvN~;~r1L1(ici,coJm?d0P9+",
"&j,,;Kd;jOGZ[s9,,x2ObDkhcQo0Pd(z&oNM^5OVk?lx9k166:iUxGxe5n:Jfj(s",
"sP9rnnQi%<3LWXm>0Wy<8fdNn>oPNrY8+ekPP>c2OG1zmlK3Z{1xWzRp>ri!J<m8",
".0gh0m!Rlo&2x68%KLOz;;N!pP5YPm($+KYKnN55z[Z7mgKXLG[6O;nK!9U<aRO+",
"#.KK%N: <$08Fx63{L1URa:e NzU=0++ $R!a:<$<>qLO{s&GZFO:Y(+!Y.Y0.O%",
"&.+#O+8.8%.+OFLxGX[8S}.##&%4S$+$&*#8%%&$+%+3LxF{OFZW$8&$&}ooX$$+",
"#z?HHACCHdw,v4W3y{a%%ntttDwEDtDwC?vvwi?<%+??3W6ZLF6F-,tEw/wCfe*I",
"+lHd?Dh;wd5wv,9[GZ3}kuukv^<D~volMPoAkDli&oEE~,4OO6FLWqDo,v,Ti,z$",
"%h/NB<kA;pn:khM<[LFs!kJM;?d9MbBBgd~)~J)i#,~hoD;z0&XGZ[bBUP^Dkzz%",
"%lDlJJmj0ZFZarrkI3ZXIP?<PP<ciJRpcRb,moob$,TloJaQnQ{36Z[9Jmn(;QY%",
"#pe,mao?f:>&x7n0UOG6W=m?/<iRrjng.QoNleP0Ogin:b/?amj{3Z[9bQaoeRY%",
"#UPkN/g9:!!UqLOO{[3xL&e=b^^O9Y9P<^:Q!.R0ON=gJP9gbc({XLWz>cpagIYs",
"O@Nmm$gXm9$g.2Gx6XO62&:ra<.eU#<YU+e*<kc+#I0>K*aR8K>W6G2&e(4NN%#&",
"+$I%#%I&$#[86yq[[Z62xFO#s+&IX8O+O*+$*++XS8+&.&-8++[2xF1*-q8I+&8$",
"&0iCDvDdN9Y$y=0N:1WFL2SrdEwDEE?wC/BA?dkvCoAnwCpp:43x62[MB,Al~e+*",
"%iCwo,vkM,n&1PBi?o1LL1<?wEJwwkAPBMkMdhhpDMkvJ~CU1XL6W8JA^??CP;g ",
"+n?NMorMorJ&!MQAoNWx64pd!J?,eBnfhUBkLG>,J3xbd<Ao[x6GWYdPMNlnmkm#",
"#,Pn)nDmDn(4frdrjKWx2-/K/?h<dcDf<h!p-O6qPOUppfe[x6GWYoN5e,o(,9Yo",
"*)i95;RJP0cX!lpnK166ORg5P5xU!!oTf!m&pr]xO3,)nU3WxF1:noJ&hJMp^!Q$",
".cQ>;Rk>jp0+(-m!1Fx34hr:O<ZJarUl; <igUs62;>c0P1Z62IjU9>bp)c!:rs$",
"&]ae]K]cT>{71e>OGZW8:]9!xWOOG]>a]!K]>{L2{qa]R8FZ3]<!].ez]Ka]rmIo",
".+m!$g+bjm#& b(XOxG8eqpbxX636+)9$9r:z4LG{aR7gaFZG+NPXa9K+cKOmr$$",
"$&,vAvfdvvD?frX62O[z;^<QOL1fAvdAvADMb1L1!;kDn1ZOOq,BB;DMn;BfkJ7+",
"#>duEEAMtHBMBr2LFO4(o~mr1LqvHHAtHEvwJ1LOQ?,CD1xOW>MEwfvAdJvM~i:o",
"+JtuBnwunlArCOFxF1:OF6O1LX:ut^AEiActuoWy[Btc?O6G]PHi,BPYDC5gMR!.",
"#kEcc/r-Av0M)Wx6WI]G6xxO}0C5pCka?PC5)d3Z]9YAUO6OX/N?RmYL2<,d0Bm#",
".oKDMc?DjzD!jW6GO3LxWWWZYMYnM9~CK;axjzOFx75ij3yF{cP>G]L{(Jj<ibY+",
"+9o/NkYnb,89aOx6]ZWO>9> Z);;zfDzdmr>Zy62Z*PR]]XL]s;D1GI:Jh>/hY;I",
"Xba:kmQ>brJ9UWLFL21(r9gz+Yba!QRegOqG3X1126XOGZGxG&ze[Z[gczprUN.+",
"o*c0:N+NU7N<>SGxF&UKI9#0< >mm&:K8U3S<$))1WFLOO36xF]163*eaT(%eN8s",
"@%88#888#8{8{{XZO&+8{I88{$I&$.%8888$88]8{]GO{8&WLZWWL8]{{{$8]8$8",
"OanwEw,iCwoAc0OGLX=pAMHtH/CNUX+mHt,HtHMHw,ZaoM!>36xWW8o,DivC~c#o",
"OkEH;p/BniBkM:&2x3XMPBJ?tHPfga.ktkHH~;HH~6OPMnMr1WLxW=lCpv?~;?!+",
"IP/;5,Q(~n0JDpzFL2@k?9nMed/bbzOkp?RJ?;?Kn1rD;z/P>&GZF{;m?p,c?(U+",
"*T(pfm!(:yhle<[6ZW.QQM<Jd/NjcaXb;9!NRNjMRm?(JnzNe:OL6[N~zbp,:j0+",
"%Tb=KczqyqQ(c-XxG&aa+b;Rc9j><z.b>UJ7pb>c9rQjRe5QY:WLGO!z;pqbmm0s",
"++eeNIK@F&0U:{LZG+T-0zN+z9>Kgs#sNKz<e-0U<$eO9<.Ka&GZFOagsNKaez$&",
".%8$8$$41GI[{3xFXS8&#8S&$+I$&&8+$S8$#&$#&$%{I+s{[36ZO8{8$+[8$&&.",
"#>,EHM9c>Ox{WZ6OaPMiCwwnHH~Aww~wwiwEfK##(vwwnwCDaFx3SPDDvnEwfi%#",
"+kCjDivvj:L166W%0?pM?bpMl!M/;DMpidPMlig+,v5AAbo:Ox6We?fkQdoPfQKX",
"#oiBri9m~:O2xG[(hm~n(JDUol/zQpeQ~Yhi0l9 o~M<,/0WLZ3SR6x3;Jh/hae+",
"+m<ko;>Qc0{FLW8>bja9pz:h;<(5j>JQ0k;YQYa+z9o;rr[WxGO<GW109r0j>!!&",
"#+!8NSee.e1F624KmIer#9mON+<R&(0@TT+r0N+O+b bXUOFZ683&eN#gSm#mg8$",
"$$+OO#*#$XX.$$&&$+.%so8OO+4$#%#7$$.#.+.&SS#&#.#+&&88$O.O#X#8}+%+"
};
