/* XPM */
static char *wall_42_64[] = {
"64 64 92 1",
"  c #000105",
". c #000005",
"X c #000104",
"o c #000205",
"O c #000004",
"+ c #000204",
"@ c #000103",
"# c #000106",
"$ c #000006",
"% c #000003",
"& c #180A05",
"* c #150804",
"= c #34180A",
"- c #281108",
"; c #2C1308",
": c #1E0C05",
"! c #230F06",
", c #2F1409",
"~ c #1A0A05",
"^ c #120603",
"< c #080202",
"> c #220E06",
"/ c #170904",
"? c #1B0C05",
"a c #130804",
"b c #0D0503",
"c c #050203",
"d c #140904",
"e c #140704",
"f c #190A04",
"g c #0F0603",
"h c #0F0704",
"i c #080402",
"j c #1E0D06",
"k c #160904",
"l c #110704",
"m c #0E0603",
"n c #110703",
"o c #1C0B05",
"p c #251007",
"q c #100603",
"r c #100704",
"s c #0B0502",
"t c #0D0603",
"u c #110905",
"v c #110804",
"w c #0E0503",
"x c #0B0402",
"y c #090403",
"z c #0B0503",
"A c #0B0806",
"B c #0E0403",
"C c #0D0403",
"D c #0A0403",
"E c #090303",
"F c #0B0403",
"G c #0C0604",
"H c #090402",
"I c #0A0504",
"J c #070303",
"K c #0B0303",
"L c #080403",
"M c #060303",
"N c #080303",
"O c #050102",
"P c #080404",
"Q c #090604",
"R c #080504",
"S c #0A0502",
"T c #060504",
"U c #010305",
"V c #150A05",
"W c #050808",
"X c #120D0A",
"Y c #010509",
"Z c #00070C",
"0 c #000A10",
"1 c #000D14",
"2 c #00293A",
"3 c #00121A",
"4 c #001C28",
"5 c #030003",
"6 c #003E56",
"7 c #006D92",
"8 c #0082AA",
"9 c #005A7C",
"( c #5FE4F2",
") c #3EE2F1",
"{ c #0DD6EC",
"} c #00A2C8",
"[ c #004C69",
"] c #003146",
" .Xo XXXX  OX    +XX+XO@ .O#XOoo#XX#oX# .O$ O# O O XXXX# #OX%X..",
"+&*==-;:;;:-=!,,,,;~^OO<:=-=>/;==,?==:=;ab.cd;-!e--f;,;?;,;*ghi#",
"O>,=ff&jk>>::,,!ljml?.i^-=fnof^~~o::op>^-^Xe,pfqeebp::f!p>&:?er%",
"O-,/p>sql/:o>qtu?movm gef~jogw>x?p?y:~/kzgXb<<vpe//fk*^~vf/-A;&.",
"Xbx*xg:B-:mtC;ApvD/~bOhgEF~kw,G&zG~&bx!gol FqB,A!fp/^g~;:^*t&gh#",
"X&eHoF^eb<f:gvznn~qCgOIjJotmdhF*e?zbh?sHwxXqjoa?dFEI*EK^tz>Fp^*%",
"Ot^LlnrL&*&wIdlmlgMaw%MrLBz?iI/LNbn&tGgNkGoyG*lEEe&dHl~L?*nyhgK@",
" EOgqFJrMqgywiPgzKhFQXNttmHNwqzBvcCtLJbFNLXNxxKGKmCHzBBcxgsaNybo",
"XcJFJJERiHNPSFiHPJJTOO#<NcHGMTIHRRyFPJEQTX  MNNONyPUiiFHIxEExREX",
"O X OOoO..X..@..XX OX%#XOX O $X #%OXo.$ @%++XX  ...o.XOX o@%OX# ",
" o-;=pmz:VePO+:,-,=p;;,;p;>p:vQ#+m!,===j,,=;,>=,pkyO%Ep;;,;pp/y ",
"+,;ukF-fn,!^ /-,ok&,e*~>r~jhr;:FOn,=&>!;&k>-^?oe!;f%cn;aoGw!h-n ",
" :apf;g*~GylO&fbzjVGdu*klql&jzlvO~>qlfh>~!aInv~GGar.z>!ok,feVhgo",
" FzyRzIGyojmX&*//Mr::Fs**~HKF&jb@Is*!I?E*z*-/amhjdtOw!^Ckgx>?zf#",
" ~fkli*aiwLsoGbelabnQIQSEkLVhndqO&~lGRuRkGMsER?bhok+Bcyy/h/eyflX",
".bdwsEmFFIvt iKiDTAWXXRAXWXTAyyRO^*QAWAATYWTQAPsuMPOFkoErKmlIDy.",
"OPJhnCMgnqDPogzhmXRWWWWWYZXXXTXAoDRW00Z0000YWTRQQQP xlnqGvVPw^w.",
"XcHED<yEyyIX  LIRTWXT112223YTWUXoW0332242432300WTU +@5PEJMIISJMX",
" XX+..X.Oo.# XoX#oUY06787860o  #YZ27878777988820ZU$+. O@+X@XOO O",
"og/p;-->>&p>r:G/k:W367((((90j:?o368))())(){)){861Yzfjm?p-o,,^&g.",
"#f=:v-v~,-&~*GwwruW28)){{(9ZgGzY48)){{{{{{{{{)(}[Z&zyv:o&;ovpvqX",
" okf,ho*sNjaPfj&uW1]8([[})90&!DZ6{{[2]]]]]][9}{)71pDpjRI>AuoA:nX",
"XHLvdjteo&RdG~DQU129({6]7)91hTFZ6{8]224422]]2]8(70IuQD*/evIlGgz$",
"X~fBLq*z^lgIGz&W0][})7]38(90whbZ]}741ZZYZ00ZZ48(91XXyoyHqeydzllO",
"#ePndGaIhMI^AXWZ3[{{{9438(90rMyY3]]4W?&Hg&vjZ28)71lFbNn&hPGwhzJo",
"ODmcemcrJddIAAW127){[4338)90hJI#Y#YUURMkLGrGZ]8)71hb^OmxcuvzGgb.",
" czKFGySGPyPUT13[}{820Y08(9ZyzJ+XoUYAGSRGIhAZ]8)73IcEcEJ<JJJRy.O",
"X%OO O%O  O #Z327(}61YW08)9o.OX.o OO.. X o.#Z]8)70.OXXOX.#@ X..O",
"+O:,p,=p-VvIY147}{93Z;=18(9Ynp=,-?,,>=j>jeWY168)91Im-p-:,,!,km%+",
"oB=,v:me/--oZ27}(820~~p37)9Z-p/fy;:!,hjolQ12[9})[0l-dmhp&fa>-:/ ",
" pVwgg-&QVwG3]8(}6ZR!td37(9Yt*;wLb&&mhAAW369}({}60G^eemeo~vth!ro",
"$ddpjvyz?hgA]7{{[4u?yV?38(9Y&lze!GjjAXY0]97))}{61Y?EIrozn^G::blX",
" f>vaFpuLhhA9}(72AuWXXW37)9ZTyfEh?zTW3698{){8]2YTXL*/Ldmo?tehvGX",
" FxrbvwzKaRY9{{63WTWWY148)900UIhvGT3398{{{}64ZTRuIixCGg*rSBeqHLO",
"OyhikrGlbcY28(82]]4444268(7]41PmGY167}{{87]0YZWThmyrGnJgEdxFKvs.",
"XMMJPMMccRZ28([[[99999998)89[4ZU0398{{}[240ZURTTTNMTUcMJcccLiiNo",
"O #. +#.  Y27(((())){{{))))){[0Z]7{){760ZY .OUo oO . OOOXX.OX%O ",
" m>p=;?>p-U49}}}}8}}8}8}}{}}}9106{{8860YAv-,?>,>mhIO%@F*p-~,!nJo",
"$p,=o:pGVaU42]]]62222]]]7(9[[6306{824ZT~>V!?~-e*p?nXn;/!ou!ff;?O",
"X-&ld*Dk&V*GYYYZZZYYYYZ47)[31YTZ[{74TQ>Gs?*k&FkgrSz#:j>fr!f-VhqO",
"XpvG^&f>tPz!pd?fj&^p:/Y37)91&/dZ[([1ZGltjG&*qz*zQoh@SHsHsoaDu:^o",
" HH?ExqE:o&L*musKl^DszY37(91kIjZ[)930WAuMRAMXARQXGI@?dFfjNN/Mng.",
"OsqMzMMdzhdyhGId&zaR/VY37)91zVd0[{7210003Z0Z1000WAR.FJsHB&ReeswO",
" IEhDqgLhhihFbmMtNgRNtY37)93AtG0[{87[624243322]]]1GocRDsgmtMTrG ",
"XMcQMMiTLJyRRNFbGMMMTUU39{93WURZ6{}888888877999873Y cMyM<JJPG<J ",
"$ O.o.XOX X% +%.o.O#@O+39{[1XX Y]}{))){{{)){{)){73YOOo%+ XoX O.$",
"O<w-;-;?,-lz#%J~!,=-of~W464W;;>o2]666666[[[66[7991u/:jV,-k=,jeFX",
"O/-,fnf;pl/^XE^,l-*v:=/QhZTQfVv#ZY101100YYZ0ZZZZZY-VI-pa~plfp-n%",
"+!zk*KkjzD!e+C*o:I^-mx*?ogwvyvo*#o/j?l!^tjl*p>VpIfqt^Ez*^qpSszwX",
" KyEbPm*ogEsXGe&q/wN*!?GRl>w!GsS.IDmCqGm-H?jHyV~tfeis!oi/*i&?gJ%",
"@d/nL~nyJbj*%J*LJw*:TByDw^*i<ydg e>:w&HIzHFgkHyM~Ji*eE<MiJ:eNfgO",
".bzCCCJgJnlzXEgejINysg/j*LgeJnmEXnxFwHa&NTkiP/&gyg&Mgy*k/hcH^DE+",
" NwbqmFwvMcN+cRqwGrvDJzyyvGI*yEXXMKglhmlEhEqzcxwtgLFsHqnJgNESFLO",
"OcELc<iJJLco XDiyMMMJNDiTiMM<HMXXOJLcMccPMT+XJzMJLMMLJMOMLyMEL+.",
"..OXo.  X.%XoO.X OOXX + XO.#.OXOO.+.OOO..O#.XOXO+o@ @XXOO%.%.OX ",
"oK/-,p;o-=;:===?==>ADOOC;>-,,>==ebp;V,!vE +Oxro~--*j-k!-?!,=:lc@",
"X~,g:nV!j~&o:Gh,?d:!^.Ho>,Vjev~~>-Gv!*kp*xoEojpkoo-/o&/f,df~pk&.",
".>hBCe~fSkwawghboj:yrOtj:*seako:qG&&~*ErzF+w/~I*vQhlF~sy^oiqEtI@",
"$EFa&~JK>to~JpB!FeyIFOFHzS!>*Dmx>jynLk~I?qO*FQzg~jG:&eI:hxt!k*v.",
" q&<iJ?h^*NxqHilgLf&lOio/Lv^C?jG^HDt*Mn&DI%^&k*Mge<yLNez?N&JQnSX",
" bOqleyyFGFHlLmFrtwJi.PyybnJDLi+qNghzCybmgOHwIKzEc^rqBrJm&MrdJiX",
" DMBmLEHmMlhcOghiLMESOcwzHcgFcrsMbbczwBcOEOMcybccbbMJgxmJyBFiSzX",
"#XTcMMPMyy<LLiiNJJPI#OOMMJT<MPiSNJTRJJiLL%o%MPRc<PNJTRJJLTNPSP..",
".O..  . .oo...  . OX@o. ..@O.  @..O  XO.Xo. #X XX ..O.O  + .+X+ "
};
