/* XPM */
static char *wall_energy_64[] = {
"64 64 90 1",
"  c #000509",
". c #000408",
"X c #000508",
"o c #000409",
"O c #000507",
"+ c #000407",
"@ c #000308",
"# c #000608",
"$ c #00050A",
"% c #00040A",
"& c #241410",
"* c #52301B",
"= c #422516",
"- c #4B2B19",
"; c #462918",
": c #2D1811",
"! c #2C1711",
", c #0D090B",
"~ c #20110F",
"^ c #391F14",
"< c #3B2317",
"> c #2F1A12",
"/ c #140C0C",
"? c #0F090B",
"a c #271611",
"b c #341C13",
"c c #291611",
"d c #0B070A",
"e c #351D13",
"f c #3B2114",
"g c #110A0B",
"h c #432617",
"i c #321B12",
"j c #321A12",
"k c #271410",
"l c #150B0C",
"m c #271510",
"n c #1E100E",
"o c #100B0C",
"p c #090709",
"q c #361F14",
"r c #1E110F",
"s c #24130F",
"t c #1D0F0E",
"u c #160C0D",
"v c #22120F",
"w c #21130F",
"x c #0F0A0B",
"y c #21110F",
"z c #170C0D",
"A c #180E0D",
"B c #1B0F0E",
"C c #291510",
"D c #1B100E",
"E c #0D080A",
"F c #130B0C",
"G c #0A080A",
"H c #180D0D",
"I c #150D0D",
"J c #1A0F0E",
"K c #190D0D",
"L c #120C0C",
"M c #00060A",
"N c #11090B",
"O c #0B090B",
"P c #060609",
"Q c #080609",
"R c #070709",
"S c #0C0B0D",
"T c #030609",
"U c #1E1310",
"V c #17100F",
"W c #020B11",
"X c #001B2C",
"Y c #041017",
"Z c #001D30",
"0 c #002033",
"1 c #002338",
"2 c #00283F",
"3 c #0F4760",
"4 c #00BEEA",
"5 c #011522",
"6 c #02080D",
"7 c #01070B",
"8 c #00ADDF",
"9 c #00E7FE",
"( c #040509",
") c #00D0F4",
"{ c #281A15",
"} c #030409",
" .XXo.O+....+XoXoXXXX+.OX@@oX@#$ .X  + .@+@X.% @.@XOX+.$X .X+Xo.",
"X&**=*=**-*****;***:!@,~*;*-*****^***<**>/o?ab=b==ccd;e*f*-*bcg ",
"+*f:=-he>;^^*ij-*>^fc /-i;*h>f=bkffaf=:kelXgmb^kjjnop-qj^^!^bfr@",
".*^^jsijhb-ekjhmiqtcu$l-=evjjjwbqarmt!j^&wX?;bnqssnx&jsn>viewv/@",
"+f>y^fvje::qsee>itj>z@A:!tnrBCzD>yb:>vAasA EhjivvkFE^evhfvt!!e/o",
"Xc!:Ct^nntj~:DcvBjnkt.GiHCImbAj!JjBz&v:tt?XE!CA?oFvqnKsbwf:HeCt+",
"+t^:ckrbvbjt:mIsHtrFn.GmrlkcII?yynJIIotKtLMlIKHptjIrb~vumysk&gtO",
"XKN~Frus/vngn?BKHKN~G $O/?zNNvAN/GEPPuGF?QXEnsdxku~~Fll~FEFmz~R ",
".QlHBE?xggd,xNxpFPGRP.MPQEQxPGdpRLGKuQpGG  R?NplE?FQ/REgFpENpRP+",
". Xo..$+ooXo@X.o XX..+$..+X+ oX. +.XMo% ++XXXXo o$%XoX@XX O+.O%X",
" >***-**-*cSoGJq***f**--f=<-brS$TUb;-b**=*-*f-;qVWX Qm***>;>is,.",
"#*mf>>C^f!iu H-fjs:fy>h>=jr>fmA.u;;e-;b&q^ikfrv::YZ.H-riicrf>jxX",
" ->nb;eCrfcxXJfsf&>>:r~DsF&/~oBMl-bnccisir>>>bvtUV0%L^fvA:=enzt ",
" !A>&AJ^!Bco#zsCsA&Fs~bzOFNtt>Bo/~sf:LwsnmCnl&bwW12$Lq!t:y!zasK$",
"X!BnFscH&so,M,tmkgk&on,Gy!zs>Hx.Hbcz:r~o~Kr&JFDS03XMb?rI~IHmxsEO",
"oJDtJEnFJoL, OBOHud?lp?~LBlvFK?XdtcmAKgnnHG/zy/S240of:z~n?JNnzGo",
"@G,OGNOEGo56Mp,gPREpREFQPgdAIORMQdgEGONEGGdpGQ,7X4X6gu,EOA?O?PQ.",
"X..oX. .MW3Y $.M%X o M.X.. .@Mo+ XX#$XoM o $. $WX81M# $o O  #o..",
".!h***=-UX91h<--;;qrO (w**-*<--***i;h-<vfGMr;-^>1)1U^=h--QA=c?R+",
"M*-ffkfsaX4Zaurfri>kL$/-h&=aq;^&cc==smbeb/ H=!>U09ZW>!uA>GJr^qg.",
"o;^ne=JcI090maevjm:Ho vecf>^KAcfDUrbqqmrB?ori>VY09ZWF:~mQzitAaN+",
" !Jc:!marZ91JF&e!AikoXv=f:&svbo&X210XYwr:x.t>J5229Xo>u&FpaI:aygO",
"+sjmLC/jI0)16wzFk&JxR ,b!gCIkIyW299943SvA, znS299)XSnCERNIBlmAG@",
"XBONtltN,Z)2WnlroIKxWMOnuAAg/O/53)11340Edg pHS3422W/?HdPnz?Jxpo.",
"$dgGgQzIWX)2WW6LFWYZWWWSWSWWYWY242WY081ELQM6xY18XWFNg(ToPxQdRETX",
". X% X%M7592125WWY32YYYZ2XX00Z18266609X7 M$M7WX9Z7$Xoo$oXMMM o..",
" I**;;*;qZ399)3YW194444))9994443Yw={04XSh-<haVZ42h>OxJ*;!:^<&DP@",
"XhCej-sfhUX0X145V242ZZZXZ0ZXXXXX&fA!X45U>qeyq&X41rfriqv==JAbe=F+",
"#:CJJ:^r:aVqY0)1I1)1Sw<<fVSwfcqqyI:LX40Uf:DiDSZ40Ll>&scr>I:kI/dX",
"Xzi>euJcHL!rSX406141u:rio~xyz>nm?c>&X92YImccxo04ZaIFgsA!A!FmsIQX",
"XBn!H&n~&ag&UX40W080xJ~orImN&F&lvFmJ5383YomxAO04Z,wtsF&HK?~uvK,X",
"%,s??D?HoIAOS292Z3)2l,,J?DJgduNHO,/AWZ342Wxx,P09Z6oJ,zzgppulKdR+",
"XRGEGdLGQOE,WZ99443X,TxREddRgPQQxFLdoSZ82WWWW6Z4ZWPTQpp(TxRPPRPX",
"X.@XoM@X@$ 76YXZ1XYWM$ooO X@#o$X$o  %M5430110ZZ4ZM ..  +%#...X.+",
".n**->**</SMS{h=bq-;b**h*h*-<w, RDe-f{Z)4)))44)35S7MPwe<>*=;fDP.",
"X=rv=:bBjbx w-eD^=cD^hkhq=e~c!H o<yr^i5430000Z05VrG$LcF!aIK>eil ",
".<>!nAr!vqx J<:>bn:b~rq&J&s:JBL#tq>eIJX40Ycvt:cm&jG rjsgv>fK:jE ",
" m:z>!>Jsrx#gJws/szk&byyaIHmj:AMotCL:DX91VA:crAkL/xXlFHt>aAjDBE#",
"@mAktkgnFDo#J:mAkzsF~Is,gryuDrx%/ugJD6X)1Scr~VCyFngXK:AtlAas>Kx.",
"XHzt,lzgHFPXPdz,?H?IO7SzJxEtRpToRx/O/RX)2G/,IQFNEpg$pEtE~ugLBJp.",
"XpPQdGpppPpX7,TQxPRW510XYRQxpp MMpQPQ7X416Po(GPdR?MOQQGp,dE?RdP ",
"XX#M@+.. o Xo M#@$$59))82$ X XMo.. +%7Z92Y7oM o.@ %X  ..Xo. ..o.",
".I;;^=-*i;***qh=q&S2)2293m=*=q;;<:-hbfY3)2W7i;*h=f---!h;=^;hjJP.",
" h>>>v=m!-:csf:rb^I2811)1rec:<vivf>nbIVY392W<-rnj=:!rc^rivbJakFX",
"XqmAciniiH!qmHHbrrG141191SaL:IruszA>IuU{5392WJ>cB>Hci:uDs>zskld.",
"oAl:IKB/mAFvHaKu~!G140042555YYYYW7/J&sxUVY34XLcIFz!suoFr~Im/Ardo",
".KCtsFn&zvrxou&gAN,140Z43222222105WOE/tEAWZ8XzE~nJ??nIDl,sFvovg+",
".FOHtFKEr?GH~GNEEAS080X3999))999425OFFpL?6X40dggEEuzd?lEuElOtgR@",
"MPEQdpPxQgFPGNPgN77040W512Z000Z038X7,QE?O6X8ZP,Rd QTddQPQ?REGdP.",
" o ..% ..Xo# M MX7Y3916WWW6667M7585M  M$#M58XMMoOo+.Xo.X+@XXM.@+",
"O,c=>--=>JR$(r-^<5393Y&==--!=>A7X4Xrf=e=<UZ)0a<bf:T.Enbfc=hheoP.",
"oheC^^B:~:u g;f>a0835V^s>safv>&6Z85aqn=>&UX40DDmnbA !fewf^J>v:?#",
" jkACm~u!v/$AbsKVZ40IeJ:CsAwv/F7X85Lz>~z!&54ZSCm!/O zvlsLK!K&NG.",
".z!cgzsmH:EMxmi^aX4XOze!BF&F!:/754Xcl~vyLA09XSJIvnQ$FcaKrclwlrG.",
"oKg?DtOJrNEXI&NmSX4Xo~rJsK?~AEA7585OKpFzwP58XFgAxF/ gtgsBHvys?F.",
"#dK/upldutpORltIS09ZPlOlFzzO,Hp$585E/E//doW357pxldP#RlApAPINNg$+",
"XTO?(ERQETT TTppW085RPPRdpPp(GPMY3YTG(TRREG53Y7PPG(.d(PpPPdETP(o",
".X$..ooOO+X o.X 753Y%oM .X.oX oMW2W Moo$ .M63XM. #XX.o+...O@. .O",
"ot=<ifb>s^<bei!e=53WM@PAh=f=qqm=f;qewk==wRoPX2S<f^cfe:jbw:^f:zQ.",
".er!>tA~yugsmBcHaY1DQ@Ofs:A~C&!I~:Jr~:uz:,.gb5YrFcnIIsB/r!aFwAGX",
"Xm~?tkJFmH?z??raLVYxpox>t?~g,GA/~Nv/GlwnLd@g:&YRKNnrkgnnmxtDFnp.",
"Xg/zFGFEgxNozldI/GS?R.TgLuQE/FuQzF/lFQplNp EG/FEE?PF?gpFguQlHEE.",
"oTRPdTQPETQdPQRdPPG,T..,pPTPTPppQQ(RdQp?P} .RpT}PEQ(RRPd(TETPE}@",
"@@.o o@o@XX.@@..@..XO @oo.O@oX.+o@. X.+.OXoX%.o..X@.@o. oX.@#+OX"
};
