/* XPM */
static char *texture_64x64[] = {
"64 64 92 1",
"  c #1E1C1C",
". c #211C1E",
"X c #24201E",
"o c #19191B",
"O c #18171B",
"+ c #13161A",
"@ c #101419",
"# c #0F1319",
"$ c #0F1218",
"% c #0F1418",
"& c #0F1419",
"* c #0F1318",
"= c #0E1418",
"- c #101519",
"; c #0F141A",
": c #0E131A",
"! c #0E1218",
", c #1D191C",
"~ c #0F1519",
"^ c #0D1419",
"< c #0E1319",
"> c #0E1318",
"/ c #3A2D25",
"? c #574330",
"a c #503E2D",
"b c #302722",
"c c #3F3327",
"d c #261E1F",
"e c #372D24",
"f c #29231F",
"g c #0E1519",
"h c #433428",
"i c #342923",
"j c #3E3027",
"k c #362B24",
"l c #342823",
"m c #4B3A2B",
"n c #2C2420",
"o c #241E1E",
"p c #2B2220",
"q c #453729",
"r c #302822",
"s c #2F2622",
"t c #27201F",
"u c #3B3026",
"v c #1A4612",
"w c #092016",
"x c #11191A",
"y c #362A24",
"z c #153513",
"A c #172C17",
"B c #281F1F",
"C c #221A1D",
"D c #143C12",
"E c #2B2120",
"F c #0B2D12",
"G c #113612",
"H c #0E2D13",
"I c #0C1819",
"J c #211B1D",
"K c #302522",
"L c #12171A",
"M c #322823",
"N c #1E1A1C",
"O c #0E1419",
"P c #184012",
"Q c #0E3412",
"R c #0A1B17",
"S c #0D1619",
"T c #2E2521",
"U c #29201F",
"V c #231C1E",
"W c #0A2414",
"X c #0A2813",
"Y c #2D2321",
"Z c #0B1519",
"0 c #1C181C",
"1 c #241C1E",
"2 c #1F191D",
"3 c #251D1E",
"4 c #29211F",
"5 c #0A2A13",
"6 c #1E181C",
"7 c #20191D",
"8 c #1E191B",
"9 c #0D1319",
"( c #1E191C",
") c #0C2D13",
"{ c #0C1419",
"} c #0A1619",
"[ c #1A201B",
"] c #0E1317",
" .X.. oO+@#$%@@@@&%&%*@=@$*#&#--;&@@@*:#!$:@*@++Oo,oO+@~^<<>*=<!",
"./??abcdefg=hacijk/a?lhlamhnohpakqrstjud&#.t?uqipmc?hsovwxsty.n;",
",ma?/aizvABC/?a?mDzfq?aam?ajqjaq????auqEC*ha//a/maaamjBFGHsmrsk!",
"Oahk?/cx~IBJ?KkinxLzbmhbzvvmjucay/?MumyENOhiPPPqkakjhn~GQRSbmMT$",
"+qdaK/uKSA.+UTfzDVK.lUqvWzfTcqshrkynkj/bO&eyB+APajcpyTRDXg+kkub#",
"-KoBpPDGIDx+ojAx+YjsjTbDZ@-jyTqKqaim/Y0K-%cYlKWznolrYLDDwos.bTU>",
"*1Yqk2.SSHvRS,VLJCXidPT-SCElebj3VkMuYxVKd~sydPpRQ M4nID5IOpKTEC*",
"&67YBV7nZIXDxNLEVK1HQRYo1EYYJl41T /YLd8V79(J6O7wQxEJxG)R+B3b32O&",
">&6J277J,IW)vHx1(67IIDXZ06(.~.+7JOJBd2VJ&9O((7CR{Q(DvFHw~76V7g**",
"*@%@#*;>@#{RwPH9&&LDFW{>!*O>O<9<#$$&~##&>$%%O%&O9)HQWWXR&@%*@*:#",
"OnuahaahaslO{IQv}HvQW^oYhTzVBtLOXq???ahaqh?en4T.^wD5R^%oyYmmmb1<",
"-a?jqcuahse4;zQF)Q)wZ03U1PzXeu.&jT?aqa?q?mavvDPVOvGROooWDx/XMjU&",
";ayyluqjaaru^IDWFDWSNxlDDAxifk1-Tmks?hq?baowvHHIZv5{LbT[WsMmk10O",
"@m/?eAAAieroSGDXHRRg2M1XHLpYYB1<TsmyupaYm/kK~SWvID)Z /Edr4olYKM;",
"OsUi,oOIb Xd))XW}WQILBYo~o5LkK~#yuiJh/j./hAzCJxXHvHZCJKloY/ObkY>",
"<gyBo1V-[t[X)5RI{wwPX+77J7CdO6J^KMdkdl.l1UQR7C7gXFGIsT1dLVx1dU,:",
"$;NL(CVo-AxQ5Xg26{IW)L-6(O-,.NSgL22LdVL20(g+7,Og5)DQo~J7J.L.V7<9",
">>><#>@*gW[DZ#9O9><^XvS=>*O9!&<*@&%%;%#~<#&O><<gSwFQL{O#**O&=<*>",
"#scmkuMf.w)F9~O+ft &RD)Ifm?akhmmmaqrTcuf& TlMhXheg^5GG}[eTtXjfo>",
"gcqm//ccp}5X9~M XckOxXDRcu?fqeqcbqf/ufnc&.KbseqzWS+R5FGddjq/bhE<",
"@MatqiAqmGFRgnKUyPNVd5F}racf/tku.kvrXlvU@YechcePxN2OZQF-BffiyY1>",
"OYociMHQLQFZo6KJDQpVHQF>cr ssjU[nfvD1UAJ&fKoJy.Jl+E0ZQDgCQQxu1M>",
">Uj.dPL+HD)I-T2O~wOWX)FgJWWkoM7)HW}QCGon~oT3YMBiC36dZQ)RwXxYNKT!",
"*N76C~12gWD}x73Y2J-WD)}^hJCdKV-5IZOXGRUE&bYOpdJldB3~IGX}5^LO6CV>",
";-23JBE7gwF5QS,7@LdQIwDLS6232O72J27S}GwC~+J6V-C-3L2&)GwZw.3+(6@&",
"<#%#@*9%<gWXQxO~&~[Xgg&;#>==O$#!9$<>gQ{-v~@#<~*<$&@+HwZ99~&g@#*<",
"OT/?amni/tSwDH,+OdD} sXpmMyimTt =0+1pQQRxx/ahhBUgce3DZ+7xBhjep7!",
"#/anKmjsMf3x}DH@WH-Iu/mzerXcumkU^kTBdXgSffhyacho&np)5ZitzxefbhE>",
"=koyedpUzD ,OWPHX5Vb)XBt.pfbdePx< ffPW0Jffqd.mUSg4.PX{B1rUHD2NdO",
"&B?KcdBQSS6YC}FPWR.W)PuoNEMLpEGPZ.BfH}(EzzpziM TgXDGw{ pIYRSYn7<",
"#dkyEYjxo.3OY{55W{0C-00L0lBKb7))wZJzWZgzSRcAfUf3}QWwGH-B(EVBU72O",
":NCB~JV-d600. vw{~7306(87J(62&^R)QvQw99!&6~I20UgPWRQHG62C(JU+6@>",
"#%*&%#%=>&<LPQQ}]>!O<:O<#<#>&<>!SX5R{O#<<!9=<!O!5g9{W) O&&^>:=<>",
"<+oTpMfXUoxP5DX90Vo/jdo9fiMTqXff ORG9+Jd^otehnMeH~8Jg5XxUlo Tt+*",
"9psm?bu/sTW)5IO6Oerrc/oOhabjqjaenXw)Sp.UOpcanuurxbV17Z}HDih//M4#",
"Okuid ltUfG5X^,JonT t/J#/ihieUyfcGWQOBvH&TkxncTfepyp,}Q5)oVMlne&",
"<jKNBPPVsVPR{-2BtkHPjo1<Mj4XsdcfzWX)}5Wg~3d3YTTa hYKNQDwLOAv4CMO",
"</UKAGIX31GIS1ocHH~SLM7<o.JcEhUcI{{FXQg6#~DzoYXV.UV0Hvwg1Mxo4MUO",
"#l 37=W55RDGR7~S)I,.E,2>,YYjOnB0x78RWQ089vGIOT0140NC)GZ3By3COb7*",
"*-gC266~^gwFQ@^gR*670;(!#,1BN((+O7,O{FH)PFX^27,&O82OPQ{-J76C7,=$",
">#9O$@=#>9IXQW=vv<*%9!!:#%*&O>9O>&#!{XGGZZ9<#O##>>~SDF{*~<O@g<!O",
"&fqnqtrnrJ+Z5DRHO7oYTrnrm/TbcTf#elffMRGw66CEnlkn!yTHFQ92npqkrbB<",
"$rhfiirhAeo6S55w,ik c cmb4ociqMOiJ/iTRvZ.3YGPeqj$uoGWF}4nhqe .j>",
"#sdmU3kfDvrJ9wDZNlrXUoEX4alkes39bkzzPFFWR4zWLiri$1KtI5vR//AXPMpO",
"&./u,yokSwW)ZXD^J4JturYjbrkh.M+>fxC-IQQwDEx+obqp!CbVIQXXzHw2VyB#",
"#eYUj6Vn XFZX559,d)X}ufie.Eksef&t6ENIX5}SwP1n1Tt~BExXGFWX6o1N1Y<",
"#23dLCUOK-{xQPX{ZHI{^Z1/3diLM3d>27E3gQQ^68+1EBE(<UJHF}}O2~HJUUB>",
"<@J172CV0^N~Q5}S5Sg677OV6J-YN1=96N,8I5QQ6-86Jd2@!@0Q}g6078~S2J%!",
"&<*%*$9O#9]^vWXvX99%^$>9!><O9-!>#!^LvR5Gx^##*#=^<<&W9!>>##^]>>#>",
"OoXcrenf(10GF)XS>@MBDd~gfjab/bfnXW))XwWGD{,0TueenPX{,66{,OXXu/B>",
"-rX.mfkqysw5vX^02OJ3P11;Xmocbjc/ji)-@6^RX5dbT4h/sAIOCY7gtyyq.dT!",
"#mppTUcnltFFWwg(yVJHHbV@jfb jpd/ISg0CN(IQDR5/7NGdpXsO0N^YfinBT3O",
"&BmoYJjCN(GGW9~C MSx~-V9Mcnhi.z)xV1CG+CZRG}ISHRgoBdJngO=4TdcTd->",
"*2Jo+Y+,B2Q)w^UB21-UoEV]7V2Y6UCS^B7J[oUPRQZSO+~-0dK713(!1nB-+p2<",
"#;7UL22,JOQFw992(3-J.C~O(7d2+d2d3^46+6SQDX{CV67+--V26V=961C+EU2<",
"&@$&>9%*&@DDO!*^>#9O>*<$%*$:=>*!!9<!<9DGR}=>@&*^$**==<O!O>=>*9<>",
"*fkfacjnd+5XZ9g/ak/qTkiubkmuaad= Tqno{QDS%IzC2O=LTemmncbhbqqi/U<",
"@kaYsmfuT,5FwO[XfhnmykqshaMmruK-jjfikXPw{C-WjT1>.fmnEqtn/c4Tjen*",
"#/imYjtl,+9WQ{ITk.uxultyqXllTlM>dcb/3wDHZ,KdPeJ<Kq.qiy1etUqlpln<",
"#bs/ibiXlTgWFXw~Ax,t 14kTXTY/pd^yL2JCIRD5.BExLE9,NT A[X[rTkXME-&",
"#Yytj41KYoVwWD5+VC7U-b.U,bELyo.^YYy4LUIWD10EY4E{6Ydk-B,Uxl4,MJJ<",
"#V01MeL7LGCIwwDGZ6E0RAO3L2U3+62]360-7X7RWD~HwJ09o7(J7d3dUOEOnO1>",
"<-N76N77-1<^{w5G5{(J;C603L7672%%&C2-3V~gw5GSIVg9&+CBN LBd22-N;!!",
"$!9<#<$<!@=!!!9999*=]O9###=!<&<*!!*<&*>9{Z999*#>999>$@*&#=<!g>=<"
};
